<svg xmlns="http://www.w3.org/2000/svg" xmlns:xlink="http://www.w3.org/1999/xlink" version="1.1" x="0px" y="0px" viewBox="0 0 79.136 32.34375" enable-background="new 0 0 79.136 25.875" xml:space="preserve"><path d="M5.494,25.875c-0.792,0-1.597-0.172-2.359-0.536c-2.735-1.306-3.902-4.569-2.605-7.309  C1.264,16.479,8.075,2.795,20.752,0.438C28.146-0.93,35.521,1.834,42.69,8.664c4.737,4.511,9.18,6.44,13.198,5.737  c6.396-1.119,11.531-8.768,12.826-11.359c1.359-2.717,4.659-3.818,7.379-2.461c2.717,1.358,3.818,4.661,2.461,7.379  c-0.305,0.61-7.623,14.978-20.771,17.276c-7.649,1.343-15.278-1.559-22.679-8.607c-4.461-4.248-8.604-6.06-12.313-5.381  c-6.107,1.115-10.969,8.683-12.327,11.505C9.516,24.722,7.545,25.875,5.494,25.875z"/></svg>