<svg id="fd0db0fb-244c-4388-a2c4-5c6ac24ca5dc"  xmlns="http://www.w3.org/2000/svg" viewBox="0 0 400 400"><title>oval striped</title><path d="M310,110H90A90,90,0,0,0,0,200H0a90,90,0,0,0,90,90H310a90,90,0,0,0,90-90h0A90,90,0,0,0,310,110Zm28,15.07a79.14,79.14,0,0,1,10,4.55V270.38a79.14,79.14,0,0,1-10,4.55Zm-7,152.11a80.52,80.52,0,0,1-10,2.05V120.77a80.52,80.52,0,0,1,10,2ZM355,133.9a80.51,80.51,0,0,1,9,7.13V259a80.51,80.51,0,0,1-9,7.13ZM120,120h9V280h-9Zm-8,160h-9V120h9Zm24-160h10V280H136Zm18,0h10V280H154Zm16,0h9V280h-9Zm16,0h10V280H186Zm18,0h10V280H204Zm17,0h9V280h-9Zm15,0h10V280H236Zm18,0h10V280H254Zm17,0h9V280h-9Zm17,0h9V280h-9ZM36,141a80.51,80.51,0,0,1,9-7.13V266.1A80.51,80.51,0,0,1,36,259Zm16-11.41a79.14,79.14,0,0,1,10-4.55V274.93a79.14,79.14,0,0,1-10-4.55Zm17-6.8a80.52,80.52,0,0,1,10-2V279.23a80.52,80.52,0,0,1-10-2.05ZM12,182.29v35.42a79.41,79.41,0,0,1,0-35.42Zm6,52.56v-69.7a80.27,80.27,0,0,1,10-15.64v101A80.27,80.27,0,0,1,18,234.85Zm68,45V120.1c1.33-.06,2.66-.1,4-.1h6V280H90C88.66,280,87.33,280,86,279.9Zm218,.1V120h6c1.34,0,2.67,0,4,.1V279.9c-1.33.06-2.66.1-4,.1Zm68-29.51v-101a80.27,80.27,0,0,1,10,15.64v69.7A80.27,80.27,0,0,1,372,250.49Zm16-32.78V182.29a79.41,79.41,0,0,1,0,35.42Z"/></svg>