<svg id="41f9a281-3218-4064-a392-9dcd07173d75" xmlns="http://www.w3.org/2000/svg" viewBox="0 0 400 400"><title>wave striped</title><path d="M367.56,148.21a30.38,30.38,0,0,0-13.09,3,138.92,138.92,0,0,1-59.85,13c-26.83,0-58.36-6.84-94.7-24.79s-67.92-24.8-94.77-24.8H103.6C46.4,115.28,1,162.78,1,220v0A31.6,31.6,0,0,0,32.31,251.8a30.36,30.36,0,0,0,13.06-3,138.6,138.6,0,0,1,59.85-13c26.85,0,58.42,6.84,94.75,24.79s67.86,24.8,94.66,24.8l1.78,0c57.12-.73,102.59-48,102.59-105.15v-.07A31.76,31.76,0,0,0,367.56,148.21ZM302,174c3.36-.15,6.7-.4,10-.75V273.9a97.56,97.56,0,0,1-10,1.26Zm17-1.67q4-.63,8-1.46v98.94c-2.62.95-5.29,1.79-8,2.5ZM335,169q5.07-1.37,10-3.09V261a91.93,91.93,0,0,1-10,5.51Zm-115-9.84q4.51,1.74,9,3.28v99.94c-3-1.12-6-2.33-9-3.59Zm16,5.57c3.35,1,6.69,2,10,2.88V268.05q-5-1.44-10-3.17Zm17,4.6c3,.69,6,1.28,9,1.83V272c-3-.6-6-1.3-9-2.06Zm16,3q5,.74,10,1.18V274.6c-3.3-.34-6.64-.79-10-1.33Zm-73-23.68v99.07q-4.51-2.07-9-3.94V144.36c2.83,1.29,5.66,2.61,8.52,4Zm-58-20.55c3,.6,6,1.3,9,2.06V230.73c-3-.68-6-1.28-9-1.82Zm-7,99.7q-5-.73-10-1.19V125.45c3.3.34,6.64.79,10,1.34ZM154,132c3.31,1,6.65,2,10,3.18V235.35q-5-1.57-10-2.89Zm17,5.69c3,1.12,6,2.33,9,3.6v99.62q-4.51-1.74-9-3.28Zm-98-7.56q3.93-1.42,8-2.49v100q-4,.63-8,1.45ZM65,231q-5.07,1.35-10,3.07V139a91.93,91.93,0,0,1,10-5.51ZM88,126.11a92.28,92.28,0,0,1,10-1.25V226c-3.36.15-6.7.39-10,.74ZM22,174.5a95.86,95.86,0,0,1,10-15V241.8a21.53,21.53,0,0,1-10-2.62Zm-7,16.6v42.14l.24.35A21.41,21.41,0,0,1,10.57,220,96.35,96.35,0,0,1,15,191.1Zm26,48.67c-.33.16-.66.3-1,.44V150.79a96.32,96.32,0,0,1,8-6.91V236.7Q44.46,238.14,41,239.77Zm64-14V125h.17c2.58,0,5.2-.29,7.83-.15V226c-2.62-.12-5.24-.2-7.83-.2Zm99,25.64V152.4c3,1.37,6,2.69,9,3.93v99.38c-2.86-1.3-5.74-2.64-8.62-4.06Zm82,23.68V174c2.91.15,5.8.25,8.67.25H295V275.4h-.39C291.77,275.41,288.89,275.3,286,275.14Zm66-19V163.25q3.47-1.41,6.85-3c.38-.18.76-.35,1.15-.5V249c1.05-1,2.09-1.93,3.09-2.92l-.85.93A96.42,96.42,0,0,1,352,256.1Zm15.34-14.83q.35-.47.66-.93V158.22a21.41,21.41,0,0,1,10,2.66v64.63A95.69,95.69,0,0,1,367.34,241.27ZM389,180.22a95.19,95.19,0,0,1-4,28.7v-42a21.37,21.37,0,0,1,4,13.22Z"/></svg>