<svg id="7a8fe0ee-97c2-4237-a7a4-44d7be25dd52" xmlns="http://www.w3.org/2000/svg" viewBox="0 0 400 400"><title>wave open</title><path d="M105.17,124.62c28,0,58.43,8,90.35,23.76,34.69,17.14,68,25.83,99.15,25.83a149.32,149.32,0,0,0,64.18-14,20.81,20.81,0,0,1,8.93-2,21.9,21.9,0,0,1,21.65,21.95v.06A95.5,95.5,0,0,1,362.24,247a92.88,92.88,0,0,1-65.75,28.4l-1.88,0c-28,0-58.32-8-90.23-23.76-34.7-17.14-68.08-25.83-99.21-25.83a149,149,0,0,0-64.18,14,20.66,20.66,0,0,1-8.89,2A21.7,21.7,0,0,1,10.57,220,95.54,95.54,0,0,1,37.7,153.07a92.64,92.64,0,0,1,65.8-28.44h1.67m0-10h-1.78C46.19,115.28.57,162.78.57,220v0A31.77,31.77,0,0,0,32.1,251.8a30.76,30.76,0,0,0,13.16-3,138.91,138.91,0,0,1,59.9-13c26.86,0,58.45,6.84,94.79,24.79s67.87,24.8,94.66,24.8l2,0c57.12-.73,102.7-48,102.81-105.15v-.07a31.91,31.91,0,0,0-31.65-32,30.85,30.85,0,0,0-13.2,3,139.17,139.17,0,0,1-59.91,13c-26.82,0-58.39-6.84-94.72-24.79s-67.93-24.8-94.78-24.8Z"/></svg>